<?xml version="1.0" standalone="no"?>
 <!DOCTYPE svg PUBLIC "-//W3C//DTD SVG 1.1//EN" 
 "http://www.w3.org/Graphics/SVG/1.1/DTD/svg11.dtd"> 
<svg xmlns="http://www.w3.org/2000/svg" version="1.1" 
    width="29.7002cm" height="21.0007cm" viewBox="0 0 116930 82680 ">
<title>SVG Picture created as foot_controller-F.Fab.svg date 2019/05/15 17:58:37 </title>
  <desc>Picture generated by PCBNEW </desc>
<g style="fill:#000000; fill-opacity:1;stroke:#000000; stroke-opacity:1;
stroke-linecap:round; stroke-linejoin:round; "
 transform="translate(0 0) scale(1 1)">
</g>
<g style="fill:#000000; fill-opacity:0.0; 
stroke:#000000; stroke-width:-0.000393701; stroke-opacity:1; 
stroke-linecap:round; stroke-linejoin:round;">
</g>
<g style="fill:#000000; fill-opacity:0.0; 
stroke:#000000; stroke-width:39.3701; stroke-opacity:1; 
stroke-linecap:round; stroke-linejoin:round;">
</g>
<g style="fill:#000000; fill-opacity:0.0; 
stroke:#000000; stroke-width:59.0551; stroke-opacity:1; 
stroke-linecap:round; stroke-linejoin:round;">
<rect x="69685.9" y="65357.2" width="42519.7" height="12598.4" rx="0" />
</g>
<g style="fill:#000000; fill-opacity:0.0; 
stroke:#000000; stroke-width:39.3701; stroke-opacity:1; 
stroke-linecap:round; stroke-linejoin:round;">
</g>
<g style="fill:#000000; fill-opacity:0.0; 
stroke:#000000; stroke-width:59.0551; stroke-opacity:1; 
stroke-linecap:round; stroke-linejoin:round;">
<rect x="3937.01" y="3937.01" width="109056" height="74806" rx="0" />
</g>
<g style="fill:#000000; fill-opacity:0.0; 
stroke:#000000; stroke-width:39.3701; stroke-opacity:1; 
stroke-linecap:round; stroke-linejoin:round;">
</g>
<g style="fill:#000000; fill-opacity:0.0; 
stroke:#000000; stroke-width:59.0551; stroke-opacity:1; 
stroke-linecap:round; stroke-linejoin:round;">
<rect x="4724.41" y="4724.41" width="107481" height="73231.2" rx="0" />
</g>
<g style="fill:#000000; fill-opacity:0.0; 
stroke:#000000; stroke-width:39.3701; stroke-opacity:1; 
stroke-linecap:round; stroke-linejoin:round;">
</g>
<g style="fill:#000000; fill-opacity:0.0; 
stroke:#000000; stroke-width:59.0551; stroke-opacity:1; 
stroke-linecap:round; stroke-linejoin:round;">
<path d="M23622 4724
L23622 3937
" />
</g>
<g style="fill:#000000; fill-opacity:0.0; 
stroke:#000000; stroke-width:39.3701; stroke-opacity:1; 
stroke-linecap:round; stroke-linejoin:round;">
</g>
<g style="fill:#000000; fill-opacity:0.0; 
stroke:#000000; stroke-width:59.0551; stroke-opacity:1; 
stroke-linecap:round; stroke-linejoin:round;">
<path d="M43307 4724
L43307 3937
" />
</g>
<g style="fill:#000000; fill-opacity:0.0; 
stroke:#000000; stroke-width:39.3701; stroke-opacity:1; 
stroke-linecap:round; stroke-linejoin:round;">
</g>
<g style="fill:#000000; fill-opacity:0.0; 
stroke:#000000; stroke-width:59.0551; stroke-opacity:1; 
stroke-linecap:round; stroke-linejoin:round;">
<path d="M62992 4724
L62992 3937
" />
</g>
<g style="fill:#000000; fill-opacity:0.0; 
stroke:#000000; stroke-width:39.3701; stroke-opacity:1; 
stroke-linecap:round; stroke-linejoin:round;">
</g>
<g style="fill:#000000; fill-opacity:0.0; 
stroke:#000000; stroke-width:59.0551; stroke-opacity:1; 
stroke-linecap:round; stroke-linejoin:round;">
<path d="M82677 4724
L82677 3937
" />
</g>
<g style="fill:#000000; fill-opacity:0.0; 
stroke:#000000; stroke-width:39.3701; stroke-opacity:1; 
stroke-linecap:round; stroke-linejoin:round;">
</g>
<g style="fill:#000000; fill-opacity:0.0; 
stroke:#000000; stroke-width:59.0551; stroke-opacity:1; 
stroke-linecap:round; stroke-linejoin:round;">
<path d="M102362 4724
L102362 3937
" />
</g>
<g style="fill:#000000; fill-opacity:0.0; 
stroke:#000000; stroke-width:39.3701; stroke-opacity:1; 
stroke-linecap:round; stroke-linejoin:round;">
</g>
<g style="fill:#000000; fill-opacity:0.0; 
stroke:#000000; stroke-width:59.0551; stroke-opacity:1; 
stroke-linecap:round; stroke-linejoin:round;">
<path d="M14199 4562
L13906 4562
" />
<path d="M14052 4562
L14052 4050
L14004 4123
L13955 4172
L13906 4196
" />
</g>
<g style="fill:#000000; fill-opacity:0.0; 
stroke:#000000; stroke-width:39.3701; stroke-opacity:1; 
stroke-linecap:round; stroke-linejoin:round;">
</g>
<g style="fill:#000000; fill-opacity:0.0; 
stroke:#000000; stroke-width:59.0551; stroke-opacity:1; 
stroke-linecap:round; stroke-linejoin:round;">
<path d="M33591 4099
L33615 4074
L33664 4050
L33786 4050
L33835 4074
L33859 4099
L33884 4147
L33884 4196
L33859 4269
L33567 4562
L33884 4562
" />
</g>
<g style="fill:#000000; fill-opacity:0.0; 
stroke:#000000; stroke-width:39.3701; stroke-opacity:1; 
stroke-linecap:round; stroke-linejoin:round;">
</g>
<g style="fill:#000000; fill-opacity:0.0; 
stroke:#000000; stroke-width:59.0551; stroke-opacity:1; 
stroke-linecap:round; stroke-linejoin:round;">
<path d="M53252 4050
L53569 4050
L53398 4245
L53471 4245
L53520 4269
L53544 4294
L53569 4342
L53569 4464
L53544 4513
L53520 4537
L53471 4562
L53325 4562
L53276 4537
L53252 4513
" />
</g>
<g style="fill:#000000; fill-opacity:0.0; 
stroke:#000000; stroke-width:39.3701; stroke-opacity:1; 
stroke-linecap:round; stroke-linejoin:round;">
</g>
<g style="fill:#000000; fill-opacity:0.0; 
stroke:#000000; stroke-width:59.0551; stroke-opacity:1; 
stroke-linecap:round; stroke-linejoin:round;">
<path d="M73205 4221
L73205 4562
" />
<path d="M73083 4026
L72961 4391
L73278 4391
" />
</g>
<g style="fill:#000000; fill-opacity:0.0; 
stroke:#000000; stroke-width:39.3701; stroke-opacity:1; 
stroke-linecap:round; stroke-linejoin:round;">
</g>
<g style="fill:#000000; fill-opacity:0.0; 
stroke:#000000; stroke-width:59.0551; stroke-opacity:1; 
stroke-linecap:round; stroke-linejoin:round;">
<path d="M92914 4050
L92671 4050
L92646 4294
L92671 4269
L92719 4245
L92841 4245
L92890 4269
L92914 4294
L92939 4342
L92939 4464
L92914 4513
L92890 4537
L92841 4562
L92719 4562
L92671 4537
L92646 4513
" />
</g>
<g style="fill:#000000; fill-opacity:0.0; 
stroke:#000000; stroke-width:39.3701; stroke-opacity:1; 
stroke-linecap:round; stroke-linejoin:round;">
</g>
<g style="fill:#000000; fill-opacity:0.0; 
stroke:#000000; stroke-width:59.0551; stroke-opacity:1; 
stroke-linecap:round; stroke-linejoin:round;">
<path d="M112575 4050
L112477 4050
L112429 4074
L112404 4099
L112356 4172
L112331 4269
L112331 4464
L112356 4513
L112380 4537
L112429 4562
L112526 4562
L112575 4537
L112599 4513
L112624 4464
L112624 4342
L112599 4294
L112575 4269
L112526 4245
L112429 4245
L112380 4269
L112356 4294
L112331 4342
" />
</g>
<g style="fill:#000000; fill-opacity:0.0; 
stroke:#000000; stroke-width:39.3701; stroke-opacity:1; 
stroke-linecap:round; stroke-linejoin:round;">
</g>
<g style="fill:#000000; fill-opacity:0.0; 
stroke:#000000; stroke-width:59.0551; stroke-opacity:1; 
stroke-linecap:round; stroke-linejoin:round;">
<path d="M23622 77955
L23622 78742
" />
</g>
<g style="fill:#000000; fill-opacity:0.0; 
stroke:#000000; stroke-width:39.3701; stroke-opacity:1; 
stroke-linecap:round; stroke-linejoin:round;">
</g>
<g style="fill:#000000; fill-opacity:0.0; 
stroke:#000000; stroke-width:59.0551; stroke-opacity:1; 
stroke-linecap:round; stroke-linejoin:round;">
<path d="M43307 77955
L43307 78742
" />
</g>
<g style="fill:#000000; fill-opacity:0.0; 
stroke:#000000; stroke-width:39.3701; stroke-opacity:1; 
stroke-linecap:round; stroke-linejoin:round;">
</g>
<g style="fill:#000000; fill-opacity:0.0; 
stroke:#000000; stroke-width:59.0551; stroke-opacity:1; 
stroke-linecap:round; stroke-linejoin:round;">
<path d="M62992 77955
L62992 78742
" />
</g>
<g style="fill:#000000; fill-opacity:0.0; 
stroke:#000000; stroke-width:39.3701; stroke-opacity:1; 
stroke-linecap:round; stroke-linejoin:round;">
</g>
<g style="fill:#000000; fill-opacity:0.0; 
stroke:#000000; stroke-width:59.0551; stroke-opacity:1; 
stroke-linecap:round; stroke-linejoin:round;">
<path d="M82677 77955
L82677 78742
" />
</g>
<g style="fill:#000000; fill-opacity:0.0; 
stroke:#000000; stroke-width:39.3701; stroke-opacity:1; 
stroke-linecap:round; stroke-linejoin:round;">
</g>
<g style="fill:#000000; fill-opacity:0.0; 
stroke:#000000; stroke-width:59.0551; stroke-opacity:1; 
stroke-linecap:round; stroke-linejoin:round;">
<path d="M102362 77955
L102362 78742
" />
</g>
<g style="fill:#000000; fill-opacity:0.0; 
stroke:#000000; stroke-width:39.3701; stroke-opacity:1; 
stroke-linecap:round; stroke-linejoin:round;">
</g>
<g style="fill:#000000; fill-opacity:0.0; 
stroke:#000000; stroke-width:59.0551; stroke-opacity:1; 
stroke-linecap:round; stroke-linejoin:round;">
<path d="M14199 78580
L13906 78580
" />
<path d="M14052 78580
L14052 78069
L14004 78142
L13955 78190
L13906 78215
" />
</g>
<g style="fill:#000000; fill-opacity:0.0; 
stroke:#000000; stroke-width:39.3701; stroke-opacity:1; 
stroke-linecap:round; stroke-linejoin:round;">
</g>
<g style="fill:#000000; fill-opacity:0.0; 
stroke:#000000; stroke-width:59.0551; stroke-opacity:1; 
stroke-linecap:round; stroke-linejoin:round;">
<path d="M33591 78117
L33615 78093
L33664 78069
L33786 78069
L33835 78093
L33859 78117
L33884 78166
L33884 78215
L33859 78288
L33567 78580
L33884 78580
" />
</g>
<g style="fill:#000000; fill-opacity:0.0; 
stroke:#000000; stroke-width:39.3701; stroke-opacity:1; 
stroke-linecap:round; stroke-linejoin:round;">
</g>
<g style="fill:#000000; fill-opacity:0.0; 
stroke:#000000; stroke-width:59.0551; stroke-opacity:1; 
stroke-linecap:round; stroke-linejoin:round;">
<path d="M53252 78069
L53569 78069
L53398 78263
L53471 78263
L53520 78288
L53544 78312
L53569 78361
L53569 78483
L53544 78532
L53520 78556
L53471 78580
L53325 78580
L53276 78556
L53252 78532
" />
</g>
<g style="fill:#000000; fill-opacity:0.0; 
stroke:#000000; stroke-width:39.3701; stroke-opacity:1; 
stroke-linecap:round; stroke-linejoin:round;">
</g>
<g style="fill:#000000; fill-opacity:0.0; 
stroke:#000000; stroke-width:59.0551; stroke-opacity:1; 
stroke-linecap:round; stroke-linejoin:round;">
<path d="M73205 78239
L73205 78580
" />
<path d="M73083 78044
L72961 78410
L73278 78410
" />
</g>
<g style="fill:#000000; fill-opacity:0.0; 
stroke:#000000; stroke-width:39.3701; stroke-opacity:1; 
stroke-linecap:round; stroke-linejoin:round;">
</g>
<g style="fill:#000000; fill-opacity:0.0; 
stroke:#000000; stroke-width:59.0551; stroke-opacity:1; 
stroke-linecap:round; stroke-linejoin:round;">
<path d="M92914 78069
L92671 78069
L92646 78312
L92671 78288
L92719 78263
L92841 78263
L92890 78288
L92914 78312
L92939 78361
L92939 78483
L92914 78532
L92890 78556
L92841 78580
L92719 78580
L92671 78556
L92646 78532
" />
</g>
<g style="fill:#000000; fill-opacity:0.0; 
stroke:#000000; stroke-width:39.3701; stroke-opacity:1; 
stroke-linecap:round; stroke-linejoin:round;">
</g>
<g style="fill:#000000; fill-opacity:0.0; 
stroke:#000000; stroke-width:59.0551; stroke-opacity:1; 
stroke-linecap:round; stroke-linejoin:round;">
<path d="M112575 78069
L112477 78069
L112429 78093
L112404 78117
L112356 78190
L112331 78288
L112331 78483
L112356 78532
L112380 78556
L112429 78580
L112526 78580
L112575 78556
L112599 78532
L112624 78483
L112624 78361
L112599 78312
L112575 78288
L112526 78263
L112429 78263
L112380 78288
L112356 78312
L112331 78361
" />
</g>
<g style="fill:#000000; fill-opacity:0.0; 
stroke:#000000; stroke-width:39.3701; stroke-opacity:1; 
stroke-linecap:round; stroke-linejoin:round;">
</g>
<g style="fill:#000000; fill-opacity:0.0; 
stroke:#000000; stroke-width:59.0551; stroke-opacity:1; 
stroke-linecap:round; stroke-linejoin:round;">
<path d="M3937 23622
L4724 23622
" />
</g>
<g style="fill:#000000; fill-opacity:0.0; 
stroke:#000000; stroke-width:39.3701; stroke-opacity:1; 
stroke-linecap:round; stroke-linejoin:round;">
</g>
<g style="fill:#000000; fill-opacity:0.0; 
stroke:#000000; stroke-width:59.0551; stroke-opacity:1; 
stroke-linecap:round; stroke-linejoin:round;">
<path d="M3937 43307
L4724 43307
" />
</g>
<g style="fill:#000000; fill-opacity:0.0; 
stroke:#000000; stroke-width:39.3701; stroke-opacity:1; 
stroke-linecap:round; stroke-linejoin:round;">
</g>
<g style="fill:#000000; fill-opacity:0.0; 
stroke:#000000; stroke-width:59.0551; stroke-opacity:1; 
stroke-linecap:round; stroke-linejoin:round;">
<path d="M3937 62992
L4724 62992
" />
</g>
<g style="fill:#000000; fill-opacity:0.0; 
stroke:#000000; stroke-width:39.3701; stroke-opacity:1; 
stroke-linecap:round; stroke-linejoin:round;">
</g>
<g style="fill:#000000; fill-opacity:0.0; 
stroke:#000000; stroke-width:59.0551; stroke-opacity:1; 
stroke-linecap:round; stroke-linejoin:round;">
<path d="M4208 13864
L4452 13864
" />
<path d="M4160 14011
L4330 13499
L4501 14011
" />
</g>
<g style="fill:#000000; fill-opacity:0.0; 
stroke:#000000; stroke-width:39.3701; stroke-opacity:1; 
stroke-linecap:round; stroke-linejoin:round;">
</g>
<g style="fill:#000000; fill-opacity:0.0; 
stroke:#000000; stroke-width:59.0551; stroke-opacity:1; 
stroke-linecap:round; stroke-linejoin:round;">
<path d="M4367 33428
L4440 33452
L4464 33476
L4489 33525
L4489 33598
L4464 33647
L4440 33671
L4391 33696
L4196 33696
L4196 33184
L4367 33184
L4416 33208
L4440 33233
L4464 33281
L4464 33330
L4440 33379
L4416 33403
L4367 33428
L4196 33428
" />
</g>
<g style="fill:#000000; fill-opacity:0.0; 
stroke:#000000; stroke-width:39.3701; stroke-opacity:1; 
stroke-linecap:round; stroke-linejoin:round;">
</g>
<g style="fill:#000000; fill-opacity:0.0; 
stroke:#000000; stroke-width:59.0551; stroke-opacity:1; 
stroke-linecap:round; stroke-linejoin:round;">
<path d="M4489 53332
L4464 53356
L4391 53381
L4342 53381
L4269 53356
L4221 53308
L4196 53259
L4172 53161
L4172 53088
L4196 52991
L4221 52942
L4269 52893
L4342 52869
L4391 52869
L4464 52893
L4489 52918
" />
</g>
<g style="fill:#000000; fill-opacity:0.0; 
stroke:#000000; stroke-width:39.3701; stroke-opacity:1; 
stroke-linecap:round; stroke-linejoin:round;">
</g>
<g style="fill:#000000; fill-opacity:0.0; 
stroke:#000000; stroke-width:59.0551; stroke-opacity:1; 
stroke-linecap:round; stroke-linejoin:round;">
<path d="M4196 73066
L4196 72554
L4318 72554
L4391 72578
L4440 72627
L4464 72676
L4489 72773
L4489 72846
L4464 72944
L4440 72993
L4391 73041
L4318 73066
L4196 73066
" />
</g>
<g style="fill:#000000; fill-opacity:0.0; 
stroke:#000000; stroke-width:39.3701; stroke-opacity:1; 
stroke-linecap:round; stroke-linejoin:round;">
</g>
<g style="fill:#000000; fill-opacity:0.0; 
stroke:#000000; stroke-width:59.0551; stroke-opacity:1; 
stroke-linecap:round; stroke-linejoin:round;">
<path d="M112992 23622
L112205 23622
" />
</g>
<g style="fill:#000000; fill-opacity:0.0; 
stroke:#000000; stroke-width:39.3701; stroke-opacity:1; 
stroke-linecap:round; stroke-linejoin:round;">
</g>
<g style="fill:#000000; fill-opacity:0.0; 
stroke:#000000; stroke-width:59.0551; stroke-opacity:1; 
stroke-linecap:round; stroke-linejoin:round;">
<path d="M112992 43307
L112205 43307
" />
</g>
<g style="fill:#000000; fill-opacity:0.0; 
stroke:#000000; stroke-width:39.3701; stroke-opacity:1; 
stroke-linecap:round; stroke-linejoin:round;">
</g>
<g style="fill:#000000; fill-opacity:0.0; 
stroke:#000000; stroke-width:59.0551; stroke-opacity:1; 
stroke-linecap:round; stroke-linejoin:round;">
<path d="M112992 62992
L112205 62992
" />
</g>
<g style="fill:#000000; fill-opacity:0.0; 
stroke:#000000; stroke-width:39.3701; stroke-opacity:1; 
stroke-linecap:round; stroke-linejoin:round;">
</g>
<g style="fill:#000000; fill-opacity:0.0; 
stroke:#000000; stroke-width:59.0551; stroke-opacity:1; 
stroke-linecap:round; stroke-linejoin:round;">
<path d="M112477 13864
L112721 13864
" />
<path d="M112428 14011
L112599 13499
L112769 14011
" />
</g>
<g style="fill:#000000; fill-opacity:0.0; 
stroke:#000000; stroke-width:39.3701; stroke-opacity:1; 
stroke-linecap:round; stroke-linejoin:round;">
</g>
<g style="fill:#000000; fill-opacity:0.0; 
stroke:#000000; stroke-width:59.0551; stroke-opacity:1; 
stroke-linecap:round; stroke-linejoin:round;">
<path d="M112635 33428
L112708 33452
L112733 33476
L112757 33525
L112757 33598
L112733 33647
L112708 33671
L112660 33696
L112465 33696
L112465 33184
L112635 33184
L112684 33208
L112708 33233
L112733 33281
L112733 33330
L112708 33379
L112684 33403
L112635 33428
L112465 33428
" />
</g>
<g style="fill:#000000; fill-opacity:0.0; 
stroke:#000000; stroke-width:39.3701; stroke-opacity:1; 
stroke-linecap:round; stroke-linejoin:round;">
</g>
<g style="fill:#000000; fill-opacity:0.0; 
stroke:#000000; stroke-width:59.0551; stroke-opacity:1; 
stroke-linecap:round; stroke-linejoin:round;">
<path d="M112757 53332
L112733 53356
L112660 53381
L112611 53381
L112538 53356
L112489 53308
L112465 53259
L112440 53161
L112440 53088
L112465 52991
L112489 52942
L112538 52893
L112611 52869
L112660 52869
L112733 52893
L112757 52918
" />
</g>
<g style="fill:#000000; fill-opacity:0.0; 
stroke:#000000; stroke-width:39.3701; stroke-opacity:1; 
stroke-linecap:round; stroke-linejoin:round;">
</g>
<g style="fill:#000000; fill-opacity:0.0; 
stroke:#000000; stroke-width:59.0551; stroke-opacity:1; 
stroke-linecap:round; stroke-linejoin:round;">
<path d="M112465 73066
L112465 72554
L112587 72554
L112660 72578
L112708 72627
L112733 72676
L112757 72773
L112757 72846
L112733 72944
L112708 72993
L112660 73041
L112587 73066
L112465 73066
" />
</g>
<g style="fill:#000000; fill-opacity:0.0; 
stroke:#000000; stroke-width:39.3701; stroke-opacity:1; 
stroke-linecap:round; stroke-linejoin:round;">
</g>
<g style="fill:#000000; fill-opacity:0.0; 
stroke:#000000; stroke-width:59.0551; stroke-opacity:1; 
stroke-linecap:round; stroke-linejoin:round;">
<path d="M78911 76293
L78911 75703
L79051 75703
L79136 75731
L79192 75787
L79220 75843
L79248 75956
L79248 76040
L79220 76153
L79192 76209
L79136 76265
L79051 76293
L78911 76293
" />
<path d="M79754 76293
L79754 75984
L79726 75928
L79670 75899
L79557 75899
L79501 75928
" />
<path d="M79754 76265
L79698 76293
L79557 76293
L79501 76265
L79473 76209
L79473 76153
L79501 76096
L79557 76068
L79698 76068
L79754 76040
" />
<path d="M79951 75899
L80176 75899
" />
<path d="M80036 75703
L80036 76209
L80064 76265
L80120 76293
L80176 76293
" />
<path d="M80598 76265
L80542 76293
L80429 76293
L80373 76265
L80345 76209
L80345 75984
L80373 75928
L80429 75899
L80542 75899
L80598 75928
L80626 75984
L80626 76040
L80345 76096
" />
<path d="M80879 76237
L80907 76265
L80879 76293
L80851 76265
L80879 76237
L80879 76293
" />
<path d="M80879 75928
L80907 75956
L80879 75984
L80851 75956
L80879 75928
L80879 75984
" />
</g>
<g style="fill:#000000; fill-opacity:0.0; 
stroke:#000000; stroke-width:39.3701; stroke-opacity:1; 
stroke-linecap:round; stroke-linejoin:round;">
</g>
<g style="fill:#000000; fill-opacity:0.0; 
stroke:#000000; stroke-width:59.0551; stroke-opacity:1; 
stroke-linecap:round; stroke-linejoin:round;">
<path d="M69685 76577
L112205 76577
" />
</g>
<g style="fill:#000000; fill-opacity:0.0; 
stroke:#000000; stroke-width:39.3701; stroke-opacity:1; 
stroke-linecap:round; stroke-linejoin:round;">
</g>
<g style="fill:#000000; fill-opacity:0.0; 
stroke:#000000; stroke-width:59.0551; stroke-opacity:1; 
stroke-linecap:round; stroke-linejoin:round;">
<path d="M70249 77395
L70249 76805
" />
<path d="M70587 77395
L70334 77058
" />
<path d="M70587 76805
L70249 77142
" />
<path d="M70840 77395
L70840 77002
" />
<path d="M70840 76805
L70812 76833
L70840 76861
L70868 76833
L70840 76805
L70840 76861
" />
<path d="M71458 77339
L71430 77367
L71346 77395
L71290 77395
L71205 77367
L71149 77311
L71121 77255
L71093 77142
L71093 77058
L71121 76946
L71149 76889
L71205 76833
L71290 76805
L71346 76805
L71430 76833
L71458 76861
" />
<path d="M71965 77395
L71965 77086
L71937 77030
L71880 77002
L71768 77002
L71712 77030
" />
<path d="M71965 77367
L71908 77395
L71768 77395
L71712 77367
L71683 77311
L71683 77255
L71712 77199
L71768 77171
L71908 77171
L71965 77142
" />
<path d="M72499 77395
L72499 76805
" />
<path d="M72499 77367
L72443 77395
L72330 77395
L72274 77367
L72246 77339
L72218 77283
L72218 77114
L72246 77058
L72274 77030
L72330 77002
L72443 77002
L72499 77030
" />
<path d="M73230 77086
L73427 77086
" />
<path d="M73511 77395
L73230 77395
L73230 76805
L73511 76805
" />
<path d="M73764 77339
L73793 77367
L73764 77395
L73736 77367
L73764 77339
L73764 77395
" />
<path d="M74046 77395
L74046 76805
L74186 76805
L74271 76833
L74327 76889
L74355 76946
L74383 77058
L74383 77142
L74355 77255
L74327 77311
L74271 77367
L74186 77395
L74046 77395
" />
<path d="M74636 77339
L74664 77367
L74636 77395
L74608 77367
L74636 77339
L74636 77395
" />
<path d="M74889 77227
L75171 77227
" />
<path d="M74833 77395
L75030 76805
L75227 77395
" />
<path d="M75424 77339
L75452 77367
L75424 77395
L75395 77367
L75424 77339
L75424 77395
" />
<path d="M76605 77395
L76605 76805
" />
<path d="M76661 77171
L76830 77395
" />
<path d="M76830 77002
L76605 77227
" />
<path d="M77083 77395
L77083 77002
" />
<path d="M77083 76805
L77055 76833
L77083 76861
L77111 76833
L77083 76805
L77083 76861
" />
<path d="M77617 77367
L77561 77395
L77448 77395
L77392 77367
L77364 77339
L77336 77283
L77336 77114
L77364 77058
L77392 77030
L77448 77002
L77561 77002
L77617 77030
" />
<path d="M78123 77395
L78123 77086
L78095 77030
L78039 77002
L77926 77002
L77870 77030
" />
<path d="M78123 77367
L78067 77395
L77926 77395
L77870 77367
L77842 77311
L77842 77255
L77870 77199
L77926 77171
L78067 77171
L78123 77142
" />
<path d="M78658 77395
L78658 76805
" />
<path d="M78658 77367
L78601 77395
L78489 77395
L78433 77367
L78404 77339
L78376 77283
L78376 77114
L78404 77058
L78433 77030
L78489 77002
L78601 77002
L78658 77030
" />
<path d="M79670 76805
L79389 76805
L79361 77086
L79389 77058
L79445 77030
L79586 77030
L79642 77058
L79670 77086
L79698 77142
L79698 77283
L79670 77339
L79642 77367
L79586 77395
L79445 77395
L79389 77367
L79361 77339
" />
<path d="M79951 77339
L79979 77367
L79951 77395
L79923 77367
L79951 77339
L79951 77395
" />
<path d="M80345 76805
L80401 76805
L80457 76833
L80485 76861
L80514 76917
L80542 77030
L80542 77171
L80514 77283
L80485 77339
L80457 77367
L80401 77395
L80345 77395
L80289 77367
L80260 77339
L80232 77283
L80204 77171
L80204 77030
L80232 76917
L80260 76861
L80289 76833
L80345 76805
" />
<path d="M80795 77339
L80823 77367
L80795 77395
L80767 77367
L80795 77339
L80795 77395
" />
<path d="M81048 76861
L81076 76833
L81132 76805
L81273 76805
L81329 76833
L81357 76861
L81385 76917
L81385 76974
L81357 77058
L81020 77395
L81385 77395
" />
<path d="M81638 77171
L82088 77171
" />
<path d="M81863 77395
L81863 76946
" />
<path d="M82623 77395
L82623 76805
" />
<path d="M82623 77367
L82566 77395
L82454 77395
L82398 77367
L82370 77339
L82341 77283
L82341 77114
L82370 77058
L82398 77030
L82454 77002
L82566 77002
L82623 77030
" />
<path d="M82820 77002
L83045 77002
" />
<path d="M82904 77395
L82904 76889
L82932 76833
L82988 76805
L83045 76805
" />
<path d="M83213 77367
L83269 77395
L83382 77395
L83438 77367
L83466 77311
L83466 77283
L83438 77227
L83382 77199
L83298 77199
L83241 77171
L83213 77114
L83213 77086
L83241 77030
L83298 77002
L83382 77002
L83438 77030
" />
<path d="M83973 77002
L83973 77480
L83944 77536
L83916 77564
L83860 77592
L83776 77592
L83719 77564
" />
<path d="M83973 77367
L83916 77395
L83804 77395
L83748 77367
L83719 77339
L83691 77283
L83691 77114
L83719 77058
L83748 77030
L83804 77002
L83916 77002
L83973 77030
" />
<path d="M84563 77395
L84226 77395
" />
<path d="M84394 77395
L84394 76805
L84338 76889
L84282 76946
L84226 76974
" />
<path d="M84816 77171
L85266 77171
" />
<path d="M85857 77395
L85519 77395
" />
<path d="M85688 77395
L85688 76805
L85632 76889
L85575 76946
L85519 76974
" />
<path d="M85969 76644
L86503 76644
" />
<path d="M86110 77395
L86110 76805
" />
<path d="M86110 77030
L86166 77002
L86278 77002
L86335 77030
L86363 77058
L86391 77114
L86391 77283
L86363 77339
L86335 77367
L86278 77395
L86166 77395
L86110 77367
" />
<path d="M86503 76644
L87038 76644
" />
<path d="M86644 77002
L86644 77592
" />
<path d="M86644 77030
L86700 77002
L86813 77002
L86869 77030
L86897 77058
L86925 77114
L86925 77283
L86897 77339
L86869 77367
L86813 77395
L86700 77395
L86644 77367
" />
<path d="M87038 76644
L87572 76644
" />
<path d="M87263 77395
L87206 77367
L87178 77339
L87150 77283
L87150 77114
L87178 77058
L87206 77030
L87263 77002
L87347 77002
L87403 77030
L87431 77058
L87460 77114
L87460 77283
L87431 77339
L87403 77367
L87347 77395
L87263 77395
" />
<path d="M87572 76644
L88135 76644
" />
<path d="M87741 77395
L87853 77395
L87910 77367
L87938 77339
L87994 77255
L88022 77142
L88022 76917
L87994 76861
L87966 76833
L87910 76805
L87797 76805
L87741 76833
L87713 76861
L87685 76917
L87685 77058
L87713 77114
L87741 77142
L87797 77171
L87910 77171
L87966 77142
L87994 77114
L88022 77058
" />
<path d="M88135 76644
L88866 76644
" />
<path d="M88275 77171
L88725 77171
" />
<path d="M88500 77395
L88500 76946
" />
<path d="M88866 76644
L89428 76644
" />
<path d="M89316 77395
L88978 77395
" />
<path d="M89147 77395
L89147 76805
L89091 76889
L89034 76946
L88978 76974
" />
</g>
<g style="fill:#000000; fill-opacity:0.0; 
stroke:#000000; stroke-width:39.3701; stroke-opacity:1; 
stroke-linecap:round; stroke-linejoin:round;">
</g>
<g style="fill:#000000; fill-opacity:0.0; 
stroke:#000000; stroke-width:59.0551; stroke-opacity:1; 
stroke-linecap:round; stroke-linejoin:round;">
<path d="M69685 75396
L112205 75396
" />
</g>
<g style="fill:#000000; fill-opacity:0.0; 
stroke:#000000; stroke-width:39.3701; stroke-opacity:1; 
stroke-linecap:round; stroke-linejoin:round;">
</g>
<g style="fill:#000000; fill-opacity:0.0; 
stroke:#000000; stroke-width:118.11; stroke-opacity:1; 
stroke-linecap:round; stroke-linejoin:round;">
<path d="M104099 76293
L103902 76012
" />
<path d="M103761 76293
L103761 75703
L103986 75703
L104042 75731
L104070 75759
L104099 75815
L104099 75899
L104070 75956
L104042 75984
L103986 76012
L103761 76012
" />
<path d="M104577 76265
L104520 76293
L104408 76293
L104352 76265
L104323 76209
L104323 75984
L104352 75928
L104408 75899
L104520 75899
L104577 75928
L104605 75984
L104605 76040
L104323 76096
" />
<path d="M104802 75899
L104942 76293
L105083 75899
" />
<path d="M105308 76237
L105336 76265
L105308 76293
L105280 76265
L105308 76237
L105308 76293
" />
<path d="M105308 75928
L105336 75956
L105308 75984
L105280 75956
L105308 75928
L105308 75984
" />
</g>
<g style="fill:#000000; fill-opacity:0.0; 
stroke:#000000; stroke-width:39.3701; stroke-opacity:1; 
stroke-linecap:round; stroke-linejoin:round;">
</g>
<g style="fill:#000000; fill-opacity:0.0; 
stroke:#000000; stroke-width:59.0551; stroke-opacity:1; 
stroke-linecap:round; stroke-linejoin:round;">
<path d="M70221 76265
L70305 76293
L70446 76293
L70502 76265
L70530 76237
L70559 76181
L70559 76124
L70530 76068
L70502 76040
L70446 76012
L70334 75984
L70277 75956
L70249 75928
L70221 75871
L70221 75815
L70249 75759
L70277 75731
L70334 75703
L70474 75703
L70559 75731
" />
<path d="M70812 76293
L70812 75899
" />
<path d="M70812 75703
L70784 75731
L70812 75759
L70840 75731
L70812 75703
L70812 75759
" />
<path d="M71037 75899
L71346 75899
L71037 76293
L71346 76293
" />
<path d="M71796 76265
L71740 76293
L71627 76293
L71571 76265
L71543 76209
L71543 75984
L71571 75928
L71627 75899
L71740 75899
L71796 75928
L71824 75984
L71824 76040
L71543 76096
" />
<path d="M72077 76237
L72105 76265
L72077 76293
L72049 76265
L72077 76237
L72077 76293
" />
<path d="M72077 75928
L72105 75956
L72077 75984
L72049 75956
L72077 75928
L72077 75984
" />
<path d="M72780 76124
L73061 76124
" />
<path d="M72724 76293
L72921 75703
L73118 76293
" />
<path d="M73568 75899
L73568 76293
" />
<path d="M73427 75674
L73286 76096
L73652 76096
" />
</g>
<g style="fill:#000000; fill-opacity:0.0; 
stroke:#000000; stroke-width:39.3701; stroke-opacity:1; 
stroke-linecap:round; stroke-linejoin:round;">
</g>
<g style="fill:#000000; fill-opacity:0.0; 
stroke:#000000; stroke-width:59.0551; stroke-opacity:1; 
stroke-linecap:round; stroke-linejoin:round;">
<path d="M103714 77395
L103714 76805
" />
<path d="M104248 77395
L104248 76805
" />
<path d="M104248 77367
L104192 77395
L104079 77395
L104023 77367
L103995 77339
L103967 77283
L103967 77114
L103995 77058
L104023 77030
L104079 77002
L104192 77002
L104248 77030
" />
<path d="M104529 77339
L104557 77367
L104529 77395
L104501 77367
L104529 77339
L104529 77395
" />
<path d="M104529 77030
L104557 77058
L104529 77086
L104501 77058
L104529 77030
L104529 77086
" />
<path d="M105570 77395
L105232 77395
" />
<path d="M105401 77395
L105401 76805
L105345 76889
L105289 76946
L105232 76974
" />
<path d="M106245 76777
L105739 77536
" />
<path d="M106751 77395
L106413 77395
" />
<path d="M106582 77395
L106582 76805
L106526 76889
L106470 76946
L106413 76974
" />
</g>
<g style="fill:#000000; fill-opacity:0.0; 
stroke:#000000; stroke-width:39.3701; stroke-opacity:1; 
stroke-linecap:round; stroke-linejoin:round;">
</g>
<g style="fill:#000000; fill-opacity:0.0; 
stroke:#000000; stroke-width:59.0551; stroke-opacity:1; 
stroke-linecap:round; stroke-linejoin:round;">
<path d="M69685 73821
L112205 73821
" />
</g>
<g style="fill:#000000; fill-opacity:0.0; 
stroke:#000000; stroke-width:39.3701; stroke-opacity:1; 
stroke-linecap:round; stroke-linejoin:round;">
</g>
<g style="fill:#000000; fill-opacity:0.0; 
stroke:#000000; stroke-width:157.48; stroke-opacity:1; 
stroke-linecap:round; stroke-linejoin:round;">
<path d="M70360 74099
L70810 74099
" />
<path d="M70486 74886
L70585 74099
" />
<path d="M70974 74886
L71039 74361
" />
<path d="M71072 74099
L71030 74136
L71063 74174
L71105 74136
L71072 74099
L71063 74174
" />
<path d="M71302 74361
L71602 74361
" />
<path d="M71447 74099
L71363 74774
L71391 74849
L71461 74886
L71536 74886
" />
<path d="M71911 74886
L71841 74849
L71813 74774
L71897 74099
" />
<path d="M72516 74849
L72436 74886
L72286 74886
L72216 74849
L72187 74774
L72225 74474
L72272 74399
L72352 74361
L72501 74361
L72572 74399
L72600 74474
L72591 74549
L72206 74624
" />
<path d="M72895 74811
L72928 74849
L72886 74886
L72853 74849
L72895 74811
L72886 74886
" />
<path d="M72947 74399
L72980 74436
L72937 74474
L72905 74436
L72947 74399
L72937 74474
" />
</g>
<g style="fill:#000000; fill-opacity:0.0; 
stroke:#000000; stroke-width:39.3701; stroke-opacity:1; 
stroke-linecap:round; stroke-linejoin:round;">
</g>
<g style="fill:#000000; fill-opacity:0.0; 
stroke:#000000; stroke-width:59.0551; stroke-opacity:1; 
stroke-linecap:round; stroke-linejoin:round;">
<path d="M70446 73070
L70249 73070
" />
<path d="M70249 73380
L70249 72789
L70530 72789
" />
<path d="M70755 73380
L70755 72986
" />
<path d="M70755 72789
L70727 72817
L70755 72845
L70784 72817
L70755 72789
L70755 72845
" />
<path d="M71121 73380
L71065 73352
L71037 73295
L71037 72789
" />
<path d="M71571 73352
L71515 73380
L71402 73380
L71346 73352
L71318 73295
L71318 73070
L71346 73014
L71402 72986
L71515 72986
L71571 73014
L71599 73070
L71599 73127
L71318 73183
" />
<path d="M71852 73323
L71880 73352
L71852 73380
L71824 73352
L71852 73323
L71852 73380
" />
<path d="M71852 73014
L71880 73042
L71852 73070
L71824 73042
L71852 73014
L71852 73070
" />
<path d="M72499 72986
L72724 72986
" />
<path d="M72583 73380
L72583 72874
L72611 72817
L72668 72789
L72724 72789
" />
<path d="M73005 73380
L72949 73352
L72921 73323
L72893 73267
L72893 73099
L72921 73042
L72949 73014
L73005 72986
L73090 72986
L73146 73014
L73174 73042
L73202 73099
L73202 73267
L73174 73323
L73146 73352
L73090 73380
L73005 73380
" />
<path d="M73539 73380
L73483 73352
L73455 73323
L73427 73267
L73427 73099
L73455 73042
L73483 73014
L73539 72986
L73624 72986
L73680 73014
L73708 73042
L73736 73099
L73736 73267
L73708 73323
L73680 73352
L73624 73380
L73539 73380
" />
<path d="M73905 72986
L74130 72986
" />
<path d="M73989 72789
L73989 73295
L74018 73352
L74074 73380
L74130 73380
" />
<path d="M74186 73436
L74636 73436
" />
<path d="M75030 73352
L74974 73380
L74861 73380
L74805 73352
L74777 73323
L74749 73267
L74749 73099
L74777 73042
L74805 73014
L74861 72986
L74974 72986
L75030 73014
" />
<path d="M75367 73380
L75311 73352
L75283 73323
L75255 73267
L75255 73099
L75283 73042
L75311 73014
L75367 72986
L75452 72986
L75508 73014
L75536 73042
L75564 73099
L75564 73267
L75536 73323
L75508 73352
L75452 73380
L75367 73380
" />
<path d="M75817 72986
L75817 73380
" />
<path d="M75817 73042
L75845 73014
L75902 72986
L75986 72986
L76042 73014
L76070 73070
L76070 73380
" />
<path d="M76267 72986
L76492 72986
" />
<path d="M76352 72789
L76352 73295
L76380 73352
L76436 73380
L76492 73380
" />
<path d="M76689 73380
L76689 72986
" />
<path d="M76689 73099
L76717 73042
L76745 73014
L76802 72986
L76858 72986
" />
<path d="M77139 73380
L77083 73352
L77055 73323
L77027 73267
L77027 73099
L77055 73042
L77083 73014
L77139 72986
L77223 72986
L77280 73014
L77308 73042
L77336 73099
L77336 73267
L77308 73323
L77280 73352
L77223 73380
L77139 73380
" />
<path d="M77673 73380
L77617 73352
L77589 73295
L77589 72789
" />
<path d="M77983 73380
L77926 73352
L77898 73295
L77898 72789
" />
<path d="M78433 73352
L78376 73380
L78264 73380
L78208 73352
L78180 73295
L78180 73070
L78208 73014
L78264 72986
L78376 72986
L78433 73014
L78461 73070
L78461 73127
L78180 73183
" />
<path d="M78714 73380
L78714 72986
" />
<path d="M78714 73099
L78742 73042
L78770 73014
L78826 72986
L78883 72986
" />
<path d="M79079 73323
L79108 73352
L79079 73380
L79051 73352
L79079 73323
L79079 73380
" />
<path d="M79361 73380
L79361 72789
" />
<path d="M79417 73155
L79586 73380
" />
<path d="M79586 72986
L79361 73211
" />
<path d="M79839 73380
L79839 72986
" />
<path d="M79839 72789
L79811 72817
L79839 72845
L79867 72817
L79839 72789
L79839 72845
" />
<path d="M80373 73352
L80317 73380
L80204 73380
L80148 73352
L80120 73323
L80092 73267
L80092 73099
L80120 73042
L80148 73014
L80204 72986
L80317 72986
L80373 73014
" />
<path d="M80879 73380
L80879 73070
L80851 73014
L80795 72986
L80682 72986
L80626 73014
" />
<path d="M80879 73352
L80823 73380
L80682 73380
L80626 73352
L80598 73295
L80598 73239
L80626 73183
L80682 73155
L80823 73155
L80879 73127
" />
<path d="M81413 73380
L81413 72789
" />
<path d="M81413 73352
L81357 73380
L81245 73380
L81188 73352
L81160 73323
L81132 73267
L81132 73099
L81160 73042
L81188 73014
L81245 72986
L81357 72986
L81413 73014
" />
<path d="M81554 73436
L82004 73436
" />
<path d="M82145 72986
L82145 73577
" />
<path d="M82145 73014
L82201 72986
L82313 72986
L82370 73014
L82398 73042
L82426 73099
L82426 73267
L82398 73323
L82370 73352
L82313 73380
L82201 73380
L82145 73352
" />
<path d="M82932 73352
L82876 73380
L82763 73380
L82707 73352
L82679 73323
L82651 73267
L82651 73099
L82679 73042
L82707 73014
L82763 72986
L82876 72986
L82932 73014
" />
<path d="M83185 73380
L83185 72789
" />
<path d="M83185 73014
L83241 72986
L83354 72986
L83410 73014
L83438 73042
L83466 73099
L83466 73267
L83438 73323
L83410 73352
L83354 73380
L83241 73380
L83185 73352
" />
</g>
<g style="fill:#000000; fill-opacity:0.0; 
stroke:#000000; stroke-width:39.3701; stroke-opacity:1; 
stroke-linecap:round; stroke-linejoin:round;">
</g>
<g style="fill:#000000; fill-opacity:0.0; 
stroke:#000000; stroke-width:59.0551; stroke-opacity:1; 
stroke-linecap:round; stroke-linejoin:round;">
<path d="M69685 71459
L112205 71459
" />
</g>
<g style="fill:#000000; fill-opacity:0.0; 
stroke:#000000; stroke-width:39.3701; stroke-opacity:1; 
stroke-linecap:round; stroke-linejoin:round;">
</g>
<g style="fill:#000000; fill-opacity:0.0; 
stroke:#000000; stroke-width:59.0551; stroke-opacity:1; 
stroke-linecap:round; stroke-linejoin:round;">
<path d="M70221 72289
L70305 72317
L70446 72317
L70502 72289
L70530 72260
L70559 72204
L70559 72148
L70530 72092
L70502 72064
L70446 72036
L70334 72007
L70277 71979
L70249 71951
L70221 71895
L70221 71839
L70249 71782
L70277 71754
L70334 71726
L70474 71726
L70559 71754
" />
<path d="M70812 72317
L70812 71726
" />
<path d="M71065 72317
L71065 72007
L71037 71951
L70980 71923
L70896 71923
L70840 71951
L70812 71979
" />
<path d="M71571 72289
L71515 72317
L71402 72317
L71346 72289
L71318 72232
L71318 72007
L71346 71951
L71402 71923
L71515 71923
L71571 71951
L71599 72007
L71599 72064
L71318 72120
" />
<path d="M72077 72289
L72021 72317
L71908 72317
L71852 72289
L71824 72232
L71824 72007
L71852 71951
L71908 71923
L72021 71923
L72077 71951
L72105 72007
L72105 72064
L71824 72120
" />
<path d="M72274 71923
L72499 71923
" />
<path d="M72358 71726
L72358 72232
L72386 72289
L72443 72317
L72499 72317
" />
<path d="M72696 72260
L72724 72289
L72696 72317
L72668 72289
L72696 72260
L72696 72317
" />
<path d="M72696 71951
L72724 71979
L72696 72007
L72668 71979
L72696 71951
L72696 72007
" />
</g>
<g style="fill:#000000; fill-opacity:0.0; 
stroke:#000000; stroke-width:39.3701; stroke-opacity:1; 
stroke-linecap:round; stroke-linejoin:round;">
</g>
<g style="fill:#000000; fill-opacity:0.0; 
stroke:#000000; stroke-width:59.0551; stroke-opacity:1; 
stroke-linecap:round; stroke-linejoin:round;">
<path d="M77559 75396
L77559 76577
" />
</g>
<g style="fill:#000000; fill-opacity:0.0; 
stroke:#000000; stroke-width:39.3701; stroke-opacity:1; 
stroke-linecap:round; stroke-linejoin:round;">
</g>
<g style="fill:#000000; fill-opacity:0.0; 
stroke:#000000; stroke-width:59.0551; stroke-opacity:1; 
stroke-linecap:round; stroke-linejoin:round;">
<path d="M102756 75396
L102756 77955
" />
</g>
<g style="fill:#000000; fill-opacity:0.0; 
stroke:#000000; stroke-width:39.3701; stroke-opacity:1; 
stroke-linecap:round; stroke-linejoin:round;">
<path d="M52818 34012
L52031 34012
" />
<path d="M52031 34012
L52031 35587
" />
<path d="M52031 35587
L52818 35587
" />
<path d="M52818 35587
L52818 34012
" />
<path d="M52425 33300
L52425 34012
" />
<path d="M52425 36300
L52425 35587
" />
<path d="M52818 34248
L52031 34248
" />
<path d="M52818 34288
L52031 34288
" />
<path d="M52818 34209
L52031 34209
" />
<path d="M58700 40500
L58440 40500
" />
<path d="M55700 40500
L55959 40500
" />
<path d="M58440 40007
L55959 40007
" />
<path d="M58440 40992
L58440 40007
" />
<path d="M55959 40992
L58440 40992
" />
<path d="M55959 40007
L55959 40992
" />
<path d="M55909 38282
L55909 39267
" />
<path d="M55909 39267
L58390 39267
" />
<path d="M58390 39267
L58390 38282
" />
<path d="M58390 38282
L55909 38282
" />
<path d="M55650 38775
L55909 38775
" />
<path d="M58650 38775
L58390 38775
" />
<path d="M58700 37275
L58440 37275
" />
<path d="M55700 37275
L55959 37275
" />
<path d="M58440 36782
L55959 36782
" />
<path d="M58440 37767
L58440 36782
" />
<path d="M55959 37767
L58440 37767
" />
<path d="M55959 36782
L55959 37767
" />
<path d="M56059 31232
L56059 32217
" />
<path d="M56059 32217
L58540 32217
" />
<path d="M58540 32217
L58540 31232
" />
<path d="M58540 31232
L56059 31232
" />
<path d="M55800 31725
L56059 31725
" />
<path d="M58800 31725
L58540 31725
" />
<path d="M55909 41707
L55909 42692
" />
<path d="M55909 42692
L58390 42692
" />
<path d="M58390 42692
L58390 41707
" />
<path d="M58390 41707
L55909 41707
" />
<path d="M55650 42200
L55909 42200
" />
<path d="M58650 42200
L58390 42200
" />
<path d="M62875 42100
L63625 42100
" />
<path d="M63625 42100
L63625 46100
" />
<path d="M63625 46100
L62625 46100
" />
<path d="M62625 46100
L62625 42350
" />
<path d="M62625 42350
L62875 42100
" />
<path d="M63174 31250
L63424 31000
" />
<path d="M63174 35000
L63174 31250
" />
<path d="M64174 35000
L63174 35000
" />
<path d="M64174 31000
L64174 35000
" />
<path d="M63424 31000
L64174 31000
" />
</g>
<g style="fill:#000000; fill-opacity:0.0; 
stroke:#000000; stroke-width:47.2441; stroke-opacity:1; 
stroke-linecap:round; stroke-linejoin:round;">
<path d="M62759 48723
L62759 48526
" />
<path d="M63940 48723
L62759 48723
" />
<path d="M63940 48526
L63940 48723
" />
<path d="M62759 48526
L63940 48526
" />
<path d="M62584 38398
L62584 38201
" />
<path d="M63765 38398
L62584 38398
" />
<path d="M63765 38201
L63765 38398
" />
<path d="M62584 38201
L63765 38201
" />
<path d="M63209 28276
L64390 28276
" />
<path d="M64390 28276
L64390 28473
" />
<path d="M64390 28473
L63209 28473
" />
<path d="M63209 28473
L63209 28276
" />
<path d="M62459 40376
L63640 40376
" />
<path d="M63640 40376
L63640 40573
" />
<path d="M63640 40573
L62459 40573
" />
<path d="M62459 40573
L62459 40376
" />
<path d="M62584 36548
L62584 36351
" />
<path d="M63765 36548
L62584 36548
" />
<path d="M63765 36351
L63765 36548
" />
<path d="M62584 36351
L63765 36351
" />
<path d="M51259 39001
L52440 39001
" />
<path d="M52440 39001
L52440 39198
" />
<path d="M52440 39198
L51259 39198
" />
<path d="M51259 39198
L51259 39001
" />
<path d="M51309 43526
L52490 43526
" />
<path d="M52490 43526
L52490 43723
" />
<path d="M52490 43723
L51309 43723
" />
<path d="M51309 43723
L51309 43526
" />
<path d="M51134 48101
L52315 48101
" />
<path d="M52315 48101
L52315 48298
" />
<path d="M52315 48298
L51134 48298
" />
<path d="M51134 48298
L51134 48101
" />
<path d="M51309 41498
L51309 41301
" />
<path d="M52490 41498
L51309 41498
" />
<path d="M52490 41301
L52490 41498
" />
<path d="M51309 41301
L52490 41301
" />
<path d="M51209 45948
L51209 45751
" />
<path d="M52390 45948
L51209 45948
" />
<path d="M52390 45751
L52390 45948
" />
<path d="M51209 45751
L52390 45751
" />
<path d="M57684 28526
L58865 28526
" />
<path d="M58865 28526
L58865 28723
" />
<path d="M58865 28723
L57684 28723
" />
<path d="M57684 28723
L57684 28526
" />
<path d="M55859 28723
L55859 28526
" />
<path d="M57040 28723
L55859 28723
" />
<path d="M57040 28526
L57040 28723
" />
<path d="M55859 28526
L57040 28526
" />
</g>
<g style="fill:#000000; fill-opacity:0.0; 
stroke:#000000; stroke-width:39.3701; stroke-opacity:1; 
stroke-linecap:round; stroke-linejoin:round;">
<path d="M58181 36000
L56075 36000
" />
<path d="M56075 36000
L56075 33000
" />
<path d="M56075 33000
L58575 33000
" />
<path d="M58575 33000
L58575 35606
" />
<path d="M58575 35606
L58181 36000
" />
</g>
<g style="fill:#000000; fill-opacity:0.0; 
stroke:#000000; stroke-width:59.0551; stroke-opacity:1; 
stroke-linecap:round; stroke-linejoin:round;">
<path d="M51768 35456
L51768 35681
" />
<path d="M51768 35568
L51374 35568
L51431 35606
L51468 35643
L51487 35681
" />
<path d="M51768 35287
L51374 35287
L51768 35062
L51374 35062
" />
<path d="M51768 34856
L51768 34781
L51749 34743
L51731 34725
L51674 34687
L51599 34668
L51449 34668
L51412 34687
L51393 34706
L51374 34743
L51374 34818
L51393 34856
L51412 34874
L51449 34893
L51543 34893
L51581 34874
L51599 34856
L51618 34818
L51618 34743
L51599 34706
L51581 34687
L51543 34668
" />
<path d="M51768 34293
L51768 34518
" />
<path d="M51768 34406
L51374 34406
L51431 34443
L51468 34481
L51487 34518
" />
<path d="M51506 33956
L51768 33956
" />
<path d="M51356 34050
L51637 34143
L51637 33900
" />
</g>
<g style="fill:#000000; fill-opacity:0.0; 
stroke:#000000; stroke-width:47.2441; stroke-opacity:1; 
stroke-linecap:round; stroke-linejoin:round;">
<path d="M52567 35150
L52252 35150
L52252 35075
L52267 35030
L52297 35000
L52327 34985
L52387 34970
L52432 34970
L52492 34985
L52522 35000
L52552 35030
L52567 35075
L52567 35150
" />
<path d="M52567 34670
L52567 34850
" />
<path d="M52567 34760
L52252 34760
L52297 34790
L52327 34820
L52342 34850
" />
</g>
<g style="fill:#000000; fill-opacity:0.0; 
stroke:#000000; stroke-width:59.0551; stroke-opacity:1; 
stroke-linecap:round; stroke-linejoin:round;">
<path d="M53311 33403
L52918 33403
" />
<path d="M53311 33178
L53086 33346
" />
<path d="M52918 33178
L53143 33403
" />
<path d="M56712 41254
L56731 41236
L56768 41217
L56862 41217
L56900 41236
L56918 41254
L56937 41292
L56937 41329
L56918 41386
L56693 41611
L56937 41611
" />
<path d="M57087 41254
L57106 41236
L57143 41217
L57237 41217
L57274 41236
L57293 41254
L57312 41292
L57312 41329
L57293 41386
L57068 41611
L57312 41611
" />
<path d="M57556 41217
L57593 41217
L57631 41236
L57649 41254
L57668 41292
L57687 41367
L57687 41461
L57668 41536
L57649 41573
L57631 41592
L57593 41611
L57556 41611
L57518 41592
L57499 41573
L57481 41536
L57462 41461
L57462 41367
L57481 41292
L57499 41254
L57518 41236
L57556 41217
" />
<path d="M57134 40678
L57003 40490
" />
<path d="M56909 40678
L56909 40284
L57059 40284
L57096 40303
L57115 40321
L57134 40359
L57134 40415
L57115 40453
L57096 40471
L57059 40490
L56909 40490
" />
<path d="M57509 40678
L57284 40678
" />
<path d="M57396 40678
L57396 40284
L57359 40340
L57321 40378
L57284 40396
" />
<path d="M56850 39529
L56868 39511
L56906 39492
L57000 39492
L57037 39511
L57056 39529
L57075 39567
L57075 39604
L57056 39661
L56831 39886
L57075 39886
" />
<path d="M57224 39529
L57243 39511
L57281 39492
L57374 39492
L57412 39511
L57431 39529
L57449 39567
L57449 39604
L57431 39661
L57206 39886
L57449 39886
" />
<path d="M57084 38953
L56953 38765
" />
<path d="M56859 38953
L56859 38559
L57009 38559
L57046 38578
L57065 38596
L57084 38634
L57084 38690
L57065 38728
L57046 38746
L57009 38765
L56859 38765
" />
<path d="M57234 38596
L57253 38578
L57290 38559
L57384 38559
L57421 38578
L57440 38596
L57459 38634
L57459 38671
L57440 38728
L57215 38953
L57459 38953
" />
<path d="M56875 37546
L56893 37528
L56931 37509
L57025 37509
L57062 37528
L57081 37546
L57100 37584
L57100 37621
L57081 37678
L56856 37903
L57100 37903
" />
<path d="M57249 37546
L57268 37528
L57306 37509
L57399 37509
L57437 37528
L57456 37546
L57474 37584
L57474 37621
L57456 37678
L57231 37903
L57474 37903
" />
<path d="M57134 37453
L57003 37265
" />
<path d="M56909 37453
L56909 37059
L57059 37059
L57096 37078
L57115 37096
L57134 37134
L57134 37190
L57115 37228
L57096 37246
L57059 37265
L56909 37265
" />
<path d="M57265 37059
L57509 37059
L57378 37209
L57434 37209
L57471 37228
L57490 37246
L57509 37284
L57509 37378
L57490 37415
L57471 37434
L57434 37453
L57321 37453
L57284 37434
L57265 37415
" />
<path d="M56512 31871
L56531 31853
L56568 31834
L56662 31834
L56700 31853
L56718 31871
L56737 31909
L56737 31946
L56718 32003
L56493 32228
L56737 32228
" />
<path d="M56887 31871
L56906 31853
L56943 31834
L57037 31834
L57074 31853
L57093 31871
L57112 31909
L57112 31946
L57093 32003
L56868 32228
L57112 32228
" />
<path d="M57356 31834
L57393 31834
L57431 31853
L57449 31871
L57468 31909
L57487 31984
L57487 32078
L57468 32153
L57449 32190
L57431 32209
L57393 32228
L57356 32228
L57318 32209
L57299 32190
L57281 32153
L57262 32078
L57262 31984
L57281 31909
L57299 31871
L57318 31853
L57356 31834
" />
<path d="M57234 31903
L57103 31715
" />
<path d="M57009 31903
L57009 31509
L57159 31509
L57196 31528
L57215 31546
L57234 31584
L57234 31640
L57215 31678
L57196 31696
L57159 31715
L57009 31715
" />
<path d="M57571 31640
L57571 31903
" />
<path d="M57478 31490
L57384 31771
L57628 31771
" />
<path d="M56831 42917
L57075 42917
L56943 43067
L57000 43067
L57037 43086
L57056 43104
L57075 43142
L57075 43236
L57056 43273
L57037 43292
L57000 43311
L56887 43311
L56850 43292
L56831 43273
" />
<path d="M57206 42917
L57449 42917
L57318 43067
L57374 43067
L57412 43086
L57431 43104
L57449 43142
L57449 43236
L57431 43273
L57412 43292
L57374 43311
L57262 43311
L57224 43292
L57206 43273
" />
<path d="M56934 42403
L56803 42215
" />
<path d="M56709 42403
L56709 42009
L56859 42009
L56896 42028
L56915 42046
L56934 42084
L56934 42140
L56915 42178
L56896 42196
L56859 42215
L56709 42215
" />
<path d="M57290 42009
L57103 42009
L57084 42196
L57103 42178
L57140 42159
L57234 42159
L57271 42178
L57290 42196
L57309 42234
L57309 42328
L57290 42365
L57271 42384
L57234 42403
L57140 42403
L57103 42384
L57084 42365
" />
<path d="M64515 42247
L64122 42378
L64515 42509
" />
<path d="M64384 43109
L64065 43109
L64028 43090
L64009 43071
L63990 43034
L63990 42978
L64009 42940
" />
<path d="M64140 43109
L64122 43071
L64122 42996
L64140 42959
L64159 42940
L64197 42922
L64309 42922
L64347 42940
L64365 42959
L64384 42996
L64384 43071
L64365 43109
" />
<path d="M64384 43296
L64122 43296
" />
<path d="M64347 43296
L64365 43315
L64384 43353
L64384 43409
L64365 43446
L64328 43465
L64122 43465
" />
<path d="M64122 43821
L64515 43821
" />
<path d="M64140 43821
L64122 43784
L64122 43709
L64140 43671
L64159 43653
L64197 43634
L64309 43634
L64347 43653
L64365 43671
L64384 43709
L64384 43784
L64365 43821
" />
<path d="M64122 44515
L64122 44290
" />
<path d="M64122 44403
L64515 44403
L64459 44365
L64422 44328
L64403 44290
" />
<path d="M64515 44759
L64515 44796
L64497 44834
L64478 44853
L64440 44871
L64365 44890
L64272 44890
L64197 44871
L64159 44853
L64140 44834
L64122 44796
L64122 44759
L64140 44721
L64159 44703
L64197 44684
L64272 44665
L64365 44665
L64440 44684
L64478 44703
L64497 44721
L64515 44759
" />
<path d="M64122 45377
L64122 45452
L64140 45490
L64159 45509
L64215 45546
L64290 45565
L64440 45565
L64478 45546
L64497 45527
L64515 45490
L64515 45415
L64497 45377
L64478 45359
L64440 45340
L64347 45340
L64309 45359
L64290 45377
L64272 45415
L64272 45490
L64290 45527
L64309 45546
L64347 45565
" />
<path d="M62909 44231
L63190 44231
L63247 44249
L63284 44287
L63303 44343
L63303 44381
" />
<path d="M63303 43837
L63303 44062
" />
<path d="M63303 43950
L62909 43950
L62965 43987
L63003 44025
L63022 44062
" />
<path d="M62759 31000
L62496 31094
L62759 31187
" />
<path d="M62759 31806
L62440 31806
L62402 31787
L62384 31769
L62365 31731
L62365 31675
L62384 31637
" />
<path d="M62515 31806
L62496 31769
L62496 31694
L62515 31656
L62534 31637
L62571 31619
L62684 31619
L62721 31637
L62740 31656
L62759 31694
L62759 31769
L62740 31806
" />
<path d="M62759 31994
L62496 31994
" />
<path d="M62721 31994
L62740 32012
L62759 32050
L62759 32106
L62740 32144
L62702 32162
L62496 32162
" />
<path d="M62496 32519
L62890 32519
" />
<path d="M62515 32519
L62496 32481
L62496 32406
L62515 32369
L62534 32350
L62571 32331
L62684 32331
L62721 32350
L62740 32369
L62759 32406
L62759 32481
L62740 32519
" />
<path d="M62515 32987
L62496 33025
L62496 33100
L62515 33137
L62552 33156
L62571 33156
L62609 33137
L62627 33100
L62627 33043
L62646 33006
L62684 32987
L62702 32987
L62740 33006
L62759 33043
L62759 33100
L62740 33137
" />
<path d="M62515 33493
L62496 33456
L62496 33381
L62515 33343
L62534 33325
L62571 33306
L62684 33306
L62721 33325
L62740 33343
L62759 33381
L62759 33456
L62740 33493
" />
<path d="M62496 33718
L62515 33681
L62552 33662
L62890 33662
" />
<path d="M62515 34150
L62496 34187
L62496 34262
L62515 34300
L62552 34318
L62571 34318
L62609 34300
L62627 34262
L62627 34206
L62646 34168
L62684 34150
L62702 34150
L62740 34168
L62759 34206
L62759 34262
L62740 34300
" />
<path d="M62496 34656
L62890 34656
" />
<path d="M62515 34656
L62496 34618
L62496 34543
L62515 34506
L62534 34487
L62571 34468
L62684 34468
L62721 34487
L62740 34506
L62759 34543
L62759 34618
L62740 34656
" />
<path d="M62496 35012
L62702 35012
L62740 34993
L62759 34956
L62759 34881
L62740 34843
" />
<path d="M62515 35012
L62496 34974
L62496 34881
L62515 34843
L62552 34824
L62590 34824
L62627 34843
L62646 34881
L62646 34974
L62665 35012
" />
<path d="M63459 33131
L63740 33131
L63796 33149
L63834 33187
L63852 33243
L63852 33281
" />
<path d="M63496 32962
L63477 32943
L63459 32906
L63459 32812
L63477 32775
L63496 32756
L63534 32737
L63571 32737
L63627 32756
L63852 32981
L63852 32737
" />
<path d="M62609 47996
L62609 47602
L62740 47883
L62871 47602
L62871 47996
" />
<path d="M63059 47996
L63059 47602
" />
<path d="M63246 47733
L63246 47996
" />
<path d="M63246 47771
L63265 47752
L63303 47733
L63359 47733
L63396 47752
L63415 47789
L63415 47996
" />
<path d="M64071 47733
L64071 47996
" />
<path d="M63978 47583
L63884 47864
L64128 47864
" />
<path d="M62853 49275
L63078 49275
" />
<path d="M62965 49669
L62965 49275
" />
<path d="M63209 49669
L63209 49275
L63359 49275
L63396 49294
L63415 49313
L63434 49350
L63434 49406
L63415 49444
L63396 49463
L63359 49481
L63209 49481
" />
<path d="M63809 49669
L63584 49669
" />
<path d="M63696 49669
L63696 49275
L63659 49331
L63621 49369
L63584 49388
" />
<path d="M62237 37803
L62237 37409
L62368 37690
L62499 37409
L62499 37803
" />
<path d="M62743 37803
L62706 37784
L62687 37765
L62668 37728
L62668 37615
L62687 37578
L62706 37559
L62743 37540
L62799 37540
L62837 37559
L62856 37578
L62874 37615
L62874 37728
L62856 37765
L62837 37784
L62799 37803
L62743 37803
" />
<path d="M63212 37540
L63212 37803
" />
<path d="M63043 37540
L63043 37746
L63062 37784
L63099 37803
L63156 37803
L63193 37784
L63212 37765
" />
<path d="M63343 37540
L63493 37540
" />
<path d="M63399 37409
L63399 37746
L63418 37784
L63456 37803
L63493 37803
" />
<path d="M64112 37409
L63924 37409
L63905 37596
L63924 37578
L63962 37559
L64055 37559
L64093 37578
L64112 37596
L64130 37634
L64130 37728
L64112 37765
L64093 37784
L64055 37803
L63962 37803
L63924 37784
L63905 37765
" />
<path d="M62677 38950
L62902 38950
" />
<path d="M62790 39344
L62790 38950
" />
<path d="M63034 39344
L63034 38950
L63184 38950
L63221 38969
L63240 38988
L63259 39025
L63259 39081
L63240 39119
L63221 39138
L63184 39156
L63034 39156
" />
<path d="M63409 38988
L63427 38969
L63465 38950
L63559 38950
L63596 38969
L63615 38988
L63634 39025
L63634 39063
L63615 39119
L63390 39344
L63634 39344
" />
<path d="M63109 27928
L63109 27534
L63240 27815
L63371 27534
L63371 27928
" />
<path d="M63559 27928
L63559 27665
" />
<path d="M63559 27534
L63540 27553
L63559 27571
L63578 27553
L63559 27534
L63559 27571
" />
<path d="M63746 27665
L63746 27928
" />
<path d="M63746 27703
L63765 27684
L63803 27665
L63859 27665
L63896 27684
L63915 27721
L63915 27928
" />
<path d="M64590 27534
L64403 27534
L64384 27721
L64403 27703
L64440 27684
L64534 27684
L64571 27703
L64590 27721
L64609 27759
L64609 27853
L64590 27890
L64571 27909
L64534 27928
L64440 27928
L64403 27909
L64384 27890
" />
<path d="M63303 29025
L63528 29025
" />
<path d="M63415 29419
L63415 29025
" />
<path d="M63659 29419
L63659 29025
L63809 29025
L63846 29044
L63865 29063
L63884 29100
L63884 29156
L63865 29194
L63846 29213
L63809 29231
L63659 29231
" />
<path d="M64015 29025
L64259 29025
L64128 29175
L64184 29175
L64221 29194
L64240 29213
L64259 29250
L64259 29344
L64240 29381
L64221 29400
L64184 29419
L64071 29419
L64034 29400
L64015 29381
" />
<path d="M62112 39845
L62112 39452
L62243 39733
L62375 39452
L62375 39845
" />
<path d="M62618 39845
L62581 39827
L62562 39808
L62543 39770
L62543 39658
L62562 39620
L62581 39602
L62618 39583
L62675 39583
L62712 39602
L62731 39620
L62750 39658
L62750 39770
L62731 39808
L62712 39827
L62675 39845
L62618 39845
" />
<path d="M63087 39583
L63087 39845
" />
<path d="M62918 39583
L62918 39789
L62937 39827
L62975 39845
L63031 39845
L63068 39827
L63087 39808
" />
<path d="M63218 39583
L63368 39583
" />
<path d="M63274 39452
L63274 39789
L63293 39827
L63331 39845
L63368 39845
" />
<path d="M63968 39583
L63968 39845
" />
<path d="M63874 39433
L63781 39714
L64024 39714
" />
<path d="M62553 41125
L62778 41125
" />
<path d="M62665 41519
L62665 41125
" />
<path d="M62909 41519
L62909 41125
L63059 41125
L63096 41144
L63115 41162
L63134 41200
L63134 41256
L63115 41294
L63096 41312
L63059 41331
L62909 41331
" />
<path d="M63471 41256
L63471 41519
" />
<path d="M63378 41106
L63284 41387
L63528 41387
" />
<path d="M62237 35821
L62237 35427
L62368 35708
L62499 35427
L62499 35821
" />
<path d="M62743 35821
L62706 35802
L62687 35783
L62668 35746
L62668 35633
L62687 35596
L62706 35577
L62743 35558
L62799 35558
L62837 35577
L62856 35596
L62874 35633
L62874 35746
L62856 35783
L62837 35802
L62799 35821
L62743 35821
" />
<path d="M63212 35558
L63212 35821
" />
<path d="M63043 35558
L63043 35764
L63062 35802
L63099 35821
L63156 35821
L63193 35802
L63212 35783
" />
<path d="M63343 35558
L63493 35558
" />
<path d="M63399 35427
L63399 35764
L63418 35802
L63456 35821
L63493 35821
" />
<path d="M63905 35464
L63924 35446
L63962 35427
L64055 35427
L64093 35446
L64112 35464
L64130 35502
L64130 35539
L64112 35596
L63887 35821
L64130 35821
" />
<path d="M62677 37100
L62902 37100
" />
<path d="M62790 37494
L62790 37100
" />
<path d="M63034 37494
L63034 37100
L63184 37100
L63221 37119
L63240 37138
L63259 37175
L63259 37231
L63240 37269
L63221 37288
L63184 37306
L63034 37306
" />
<path d="M63615 37100
L63427 37100
L63409 37288
L63427 37269
L63465 37250
L63559 37250
L63596 37269
L63615 37288
L63634 37325
L63634 37419
L63615 37456
L63596 37475
L63559 37494
L63465 37494
L63427 37475
L63409 37456
" />
<path d="M51962 38471
L51737 38471
" />
<path d="M51850 38471
L51850 38077
L51812 38133
L51775 38171
L51737 38189
" />
<path d="M51353 39750
L51578 39750
" />
<path d="M51465 40144
L51465 39750
" />
<path d="M51709 40144
L51709 39750
L51859 39750
L51896 39769
L51915 39788
L51934 39825
L51934 39881
L51915 39919
L51896 39938
L51859 39956
L51709 39956
" />
<path d="M52271 39750
L52196 39750
L52159 39769
L52140 39788
L52103 39844
L52084 39919
L52084 40069
L52103 40106
L52121 40125
L52159 40144
L52234 40144
L52271 40125
L52290 40106
L52309 40069
L52309 39975
L52290 39938
L52271 39919
L52234 39900
L52159 39900
L52121 39919
L52103 39938
L52084 39975
" />
<path d="M51768 42602
L52012 42602
L51881 42752
L51937 42752
L51974 42771
L51993 42789
L52012 42827
L52012 42921
L51993 42958
L51974 42977
L51937 42996
L51825 42996
L51787 42977
L51768 42958
" />
<path d="M51403 44275
L51628 44275
" />
<path d="M51515 44669
L51515 44275
" />
<path d="M51759 44669
L51759 44275
L51909 44275
L51946 44294
L51965 44313
L51984 44350
L51984 44406
L51965 44444
L51946 44463
L51909 44481
L51759 44481
" />
<path d="M52115 44275
L52378 44275
L52209 44669
" />
<path d="M51425 47571
L51425 47177
" />
<path d="M51425 47552
L51387 47571
L51312 47571
L51275 47552
L51256 47533
L51237 47496
L51237 47383
L51256 47346
L51275 47327
L51312 47308
L51387 47308
L51425 47327
" />
<path d="M51575 47308
L51650 47571
L51725 47383
L51800 47571
L51875 47308
" />
<path d="M52025 47308
L52025 47571
" />
<path d="M52025 47346
L52043 47327
L52081 47308
L52137 47308
L52175 47327
L52193 47364
L52193 47571
" />
<path d="M51228 48850
L51453 48850
" />
<path d="M51340 49244
L51340 48850
" />
<path d="M51584 49244
L51584 48850
L51734 48850
L51772 48869
L51790 48888
L51809 48925
L51809 48981
L51790 49019
L51772 49038
L51734 49056
L51584 49056
" />
<path d="M52034 49019
L51997 49000
L51978 48981
L51959 48944
L51959 48925
L51978 48888
L51997 48869
L52034 48850
L52109 48850
L52147 48869
L52165 48888
L52184 48925
L52184 48944
L52165 48981
L52147 49000
L52109 49019
L52034 49019
L51997 49038
L51978 49056
L51959 49094
L51959 49169
L51978 49206
L51997 49225
L52034 49244
L52109 49244
L52147 49225
L52165 49206
L52184 49169
L52184 49094
L52165 49056
L52147 49038
L52109 49019
" />
<path d="M51787 40414
L51806 40396
L51843 40377
L51937 40377
L51974 40396
L51993 40414
L52012 40452
L52012 40489
L51993 40546
L51768 40771
L52012 40771
" />
<path d="M51403 42050
L51628 42050
" />
<path d="M51515 42444
L51515 42050
" />
<path d="M51759 42444
L51759 42050
L51909 42050
L51946 42069
L51965 42088
L51984 42125
L51984 42181
L51965 42219
L51946 42238
L51909 42256
L51759 42256
" />
<path d="M52171 42444
L52246 42444
L52284 42425
L52303 42406
L52340 42350
L52359 42275
L52359 42125
L52340 42088
L52321 42069
L52284 42050
L52209 42050
L52171 42069
L52153 42088
L52134 42125
L52134 42219
L52153 42256
L52171 42275
L52209 42294
L52284 42294
L52321 42275
L52340 42256
L52359 42219
" />
<path d="M51706 44958
L51706 45221
" />
<path d="M51537 44958
L51537 45164
L51556 45202
L51593 45221
L51650 45221
L51687 45202
L51706 45183
" />
<path d="M51893 44958
L51893 45352
" />
<path d="M51893 44977
L51931 44958
L52006 44958
L52043 44977
L52062 44996
L52081 45033
L52081 45146
L52062 45183
L52043 45202
L52006 45221
L51931 45221
L51893 45202
" />
<path d="M51115 46500
L51340 46500
" />
<path d="M51228 46894
L51228 46500
" />
<path d="M51471 46894
L51471 46500
L51621 46500
L51659 46519
L51678 46538
L51696 46575
L51696 46631
L51678 46669
L51659 46688
L51621 46706
L51471 46706
" />
<path d="M52071 46894
L51846 46894
" />
<path d="M51959 46894
L51959 46500
L51921 46556
L51884 46594
L51846 46613
" />
<path d="M52315 46500
L52353 46500
L52390 46519
L52409 46538
L52428 46575
L52446 46650
L52446 46744
L52428 46819
L52409 46856
L52390 46875
L52353 46894
L52315 46894
L52278 46875
L52259 46856
L52240 46819
L52221 46744
L52221 46650
L52240 46575
L52259 46538
L52278 46519
L52315 46500
" />
<path d="M58199 27602
L58012 27602
L57993 27789
L58012 27771
L58049 27752
L58143 27752
L58181 27771
L58199 27789
L58218 27827
L58218 27921
L58199 27958
L58181 27977
L58143 27996
L58049 27996
L58012 27977
L57993 27958
" />
<path d="M58331 27602
L58462 27996
L58593 27602
" />
<path d="M57590 29275
L57815 29275
" />
<path d="M57702 29669
L57702 29275
" />
<path d="M57946 29669
L57946 29275
L58096 29275
L58134 29294
L58152 29313
L58171 29350
L58171 29406
L58152 29444
L58134 29463
L58096 29481
L57946 29481
" />
<path d="M58546 29669
L58321 29669
" />
<path d="M58434 29669
L58434 29275
L58396 29331
L58359 29369
L58321 29388
" />
<path d="M58921 29669
L58696 29669
" />
<path d="M58809 29669
L58809 29275
L58771 29331
L58734 29369
L58696 29388
" />
<path d="M56150 27621
L56112 27602
L56056 27602
L56000 27621
L55962 27658
L55943 27696
L55925 27771
L55925 27827
L55943 27902
L55962 27939
L56000 27977
L56056 27996
L56093 27996
L56150 27977
L56168 27958
L56168 27827
L56093 27827
" />
<path d="M56337 27996
L56337 27602
L56562 27996
L56562 27602
" />
<path d="M56749 27996
L56749 27602
L56843 27602
L56899 27621
L56937 27658
L56956 27696
L56974 27771
L56974 27827
L56956 27902
L56937 27939
L56899 27977
L56843 27996
L56749 27996
" />
<path d="M55765 29275
L55990 29275
" />
<path d="M55878 29669
L55878 29275
" />
<path d="M56121 29669
L56121 29275
L56271 29275
L56309 29294
L56328 29313
L56346 29350
L56346 29406
L56328 29444
L56309 29463
L56271 29481
L56121 29481
" />
<path d="M56721 29669
L56496 29669
" />
<path d="M56609 29669
L56609 29275
L56571 29331
L56534 29369
L56496 29388
" />
<path d="M56871 29313
L56890 29294
L56928 29275
L57021 29275
L57059 29294
L57078 29313
L57096 29350
L57096 29388
L57078 29444
L56853 29669
L57096 29669
" />
<path d="M56537 33903
L56537 33509
L56687 33509
L56725 33528
L56743 33546
L56762 33584
L56762 33640
L56743 33678
L56725 33696
L56687 33715
L56537 33715
" />
<path d="M57156 33865
L57137 33884
L57081 33903
L57043 33903
L56987 33884
L56950 33846
L56931 33809
L56912 33734
L56912 33678
L56931 33603
L56950 33565
L56987 33528
L57043 33509
L57081 33509
L57137 33528
L57156 33546
" />
<path d="M57343 33903
L57418 33903
L57456 33884
L57474 33865
L57512 33809
L57531 33734
L57531 33584
L57512 33546
L57493 33528
L57456 33509
L57381 33509
L57343 33528
L57325 33546
L57306 33584
L57306 33678
L57325 33715
L57343 33734
L57381 33753
L57456 33753
L57493 33734
L57512 33715
L57531 33678
" />
<path d="M57774 33509
L57812 33509
L57849 33528
L57868 33546
L57887 33584
L57906 33659
L57906 33753
L57887 33828
L57868 33865
L57849 33884
L57812 33903
L57774 33903
L57737 33884
L57718 33865
L57699 33828
L57681 33753
L57681 33659
L57699 33584
L57718 33546
L57737 33528
L57774 33509
" />
<path d="M58149 33509
L58187 33509
L58224 33528
L58243 33546
L58262 33584
L58281 33659
L58281 33753
L58262 33828
L58243 33865
L58224 33884
L58187 33903
L58149 33903
L58112 33884
L58093 33865
L58074 33828
L58056 33753
L58056 33659
L58074 33584
L58093 33546
L58112 33528
L58149 33509
" />
<path d="M57025 34284
L57025 34603
L57043 34640
L57062 34659
L57100 34678
L57175 34678
L57212 34659
L57231 34640
L57250 34603
L57250 34284
" />
<path d="M57400 34284
L57643 34284
L57512 34434
L57568 34434
L57606 34453
L57625 34471
L57643 34509
L57643 34603
L57625 34640
L57606 34659
L57568 34678
L57456 34678
L57418 34659
L57400 34640
" />
<circle cx="65575" cy="48525" r="656.168" /> 
<path d="M64590 48525
L66559 48525
" />
<path d="M65575 47540
L65575 49509
" />
<circle cx="51725" cy="28625" r="656.168" /> 
<path d="M50740 28625
L52709 28625
" />
<path d="M51725 27640
L51725 29609
" />
</g> 
</svg>
